<svg enable-background="new 0 0 32 32" height="64" viewBox="0 0 32 32" width="64" xmlns="http://www.w3.org/2000/svg"><g transform="matrix(.99688474 0 0 .99688474 .049844 -27.912773)"><path d="m30.2 60c1 0 1.8-.8 1.8-1.8v-28.4c0-1-.8-1.8-1.8-1.8h-28.4c-1 0-1.8.8-1.8 1.8v28.5c0 1 .8 1.8 1.8 1.8h28.4z" fill="#e8621d"/><g fill="#fff"><path d="m6.7 34.4s18.2-.9 19.6 18.3h-3.7s.7-14-15.9-15.2c0-.1 0-3.1 0-3.1z"/><path d="m6.7 40.8s10.7-.4 12.7 11.9h-3.7s-.4-7.3-9-8.9z"/><path d="m8.7 48.8c1.3 0 2.3 1 2.3 2.3s-1 2.3-2.3 2.3-2.3-1-2.3-2.3c-.1-1.3 1-2.3 2.3-2.3z"/></g></g></svg>